####
#
# OBJ File Generated by Meshlab
#
####
# Object link.obj
#
# Vertices: 148
# Faces: 292
#
####
vn -0.068517 3.097960 3.140098
v -0.060000 0.000000 0.018000
vn 0.068517 3.097960 3.140098
v 0.060000 0.000000 0.018000
vn 0.068517 3.097960 -3.140098
v 0.060000 0.000000 -0.018000
vn 0.273547 3.054326 3.126659
v 0.061569 0.000000 0.017932
vn 1.800226 3.054326 2.570994
v 0.070324 0.000000 0.014745
vn 2.017457 3.054322 2.404307
v 0.071570 0.000000 0.013789
vn 2.219329 3.054331 2.219326
v 0.072728 0.000000 0.012728
vn 2.404306 3.054326 2.017458
v 0.073789 0.000000 0.011570
vn 2.570992 3.054324 1.800229
v 0.074745 0.000000 0.010324
vn 2.718110 3.054328 1.569300
v 0.075588 0.000000 0.009000
vn 3.031657 3.054331 -0.812334
v 0.077387 0.000000 -0.004659
vn 2.949322 3.054325 -1.073463
v 0.076914 0.000000 -0.006156
vn 2.844540 3.054326 -1.326431
v 0.076314 0.000000 -0.007607
vn 2.718110 3.054328 -1.569300
v 0.075588 0.000000 -0.009000
vn 2.219329 3.054331 -2.219326
v 0.072728 0.000000 -0.012728
vn 2.017457 3.054322 -2.404307
v 0.071570 0.000000 -0.013789
vn -0.068517 3.097960 -3.140098
v -0.060000 0.000000 -0.018000
vn -0.273547 3.054326 -3.126659
v -0.061569 0.000000 -0.017932
vn -0.545011 3.054327 -3.090920
v -0.063126 0.000000 -0.017727
vn -0.812330 3.054324 -3.031657
v -0.064659 0.000000 -0.017387
vn -1.073468 3.054327 -2.949321
v -0.066156 0.000000 -0.016914
vn -1.326431 3.054327 -2.844540
v -0.067607 0.000000 -0.016314
vn -3.031657 3.054331 -0.812334
v -0.077387 0.000000 -0.004659
vn -3.090920 3.054318 -0.545011
v -0.077727 0.000000 -0.003126
vn -3.031657 3.054331 0.812334
v -0.077387 0.000000 0.004659
vn 0.545011 3.054327 3.090920
v 0.063126 0.000000 0.017727
vn 0.812330 3.054324 3.031657
v 0.064659 0.000000 0.017387
vn 1.073468 3.054327 2.949321
v 0.066156 0.000000 0.016914
vn 1.326431 3.054327 2.844540
v 0.067607 0.000000 0.016314
vn 1.569300 3.054326 2.718110
v 0.069000 0.000000 0.015588
vn 2.844540 3.054326 1.326431
v 0.076314 0.000000 0.007607
vn 2.949322 3.054325 1.073463
v 0.076914 0.000000 0.006156
vn 3.031657 3.054331 0.812334
v 0.077387 0.000000 0.004659
vn 3.090920 3.054318 0.545011
v 0.077727 0.000000 0.003126
vn 3.126660 3.054334 0.273546
v 0.077932 0.000000 0.001569
vn 3.138602 3.054320 0.000000
v 0.078000 0.000000 0.000000
vn 2.570992 3.054324 -1.800229
v 0.074745 0.000000 -0.010324
vn 2.404306 3.054326 -2.017458
v 0.073789 0.000000 -0.011570
vn 1.800226 3.054326 -2.570994
v 0.070324 0.000000 -0.014745
vn 1.569300 3.054326 -2.718110
v 0.069000 0.000000 -0.015588
vn 1.326431 3.054327 -2.844540
v 0.067607 0.000000 -0.016314
vn -2.949322 3.054325 -1.073463
v -0.076914 0.000000 -0.006156
vn -2.949322 3.054325 1.073463
v -0.076914 0.000000 0.006156
vn -2.844540 3.054326 1.326431
v -0.076314 0.000000 0.007607
vn -2.718110 3.054328 1.569300
v -0.075588 0.000000 0.009000
vn 1.073468 3.054327 -2.949321
v 0.066156 0.000000 -0.016914
vn 0.812330 3.054324 -3.031657
v 0.064659 0.000000 -0.017387
vn 0.273547 3.054326 -3.126659
v 0.061569 0.000000 -0.017932
vn 0.545011 3.054327 -3.090920
v 0.063126 0.000000 -0.017727
vn -1.569300 3.054326 -2.718110
v -0.069000 0.000000 -0.015588
vn -1.800226 3.054326 -2.570994
v -0.070324 0.000000 -0.014745
vn -2.017457 3.054322 -2.404307
v -0.071570 0.000000 -0.013789
vn -2.219329 3.054331 -2.219326
v -0.072728 0.000000 -0.012728
vn -2.404306 3.054326 -2.017458
v -0.073789 0.000000 -0.011570
vn -2.570992 3.054324 -1.800229
v -0.074745 0.000000 -0.010324
vn 3.126660 3.054334 -0.273546
v 0.077932 0.000000 -0.001569
vn 3.090920 3.054318 -0.545011
v 0.077727 0.000000 -0.003126
vn -2.718110 3.054328 -1.569300
v -0.075588 0.000000 -0.009000
vn -2.844540 3.054326 -1.326431
v -0.076314 0.000000 -0.007607
vn -3.126660 3.054334 -0.273546
v -0.077932 0.000000 -0.001569
vn -3.138602 3.054320 -0.000000
v -0.078000 0.000000 -0.000000
vn -3.090920 3.054318 0.545011
v -0.077727 0.000000 0.003126
vn -3.126660 3.054334 0.273546
v -0.077932 0.000000 0.001569
vn -2.570992 3.054324 1.800229
v -0.074745 0.000000 0.010324
vn -2.404306 3.054326 2.017458
v -0.073789 0.000000 0.011570
vn -2.219329 3.054331 2.219326
v -0.072728 0.000000 0.012728
vn -0.812330 3.054324 3.031657
v -0.064659 0.000000 0.017387
vn -0.545011 3.054327 3.090920
v -0.063126 0.000000 0.017727
vn -0.273547 3.054326 3.126659
v -0.061569 0.000000 0.017932
vn -2.017457 3.054322 2.404307
v -0.071570 0.000000 0.013789
vn -1.800226 3.054326 2.570994
v -0.070324 0.000000 0.014745
vn -1.569300 3.054326 2.718110
v -0.069000 0.000000 0.015588
vn -1.326431 3.054327 2.844540
v -0.067607 0.000000 0.016314
vn -1.073468 3.054327 2.949321
v -0.066156 0.000000 0.016914
vn 0.273547 -3.054326 3.126659
v 0.061569 -0.015000 0.017932
vn 0.068517 -3.097960 3.140098
v 0.060000 -0.015000 0.018000
vn 0.068517 -3.097960 -3.140098
v 0.060000 -0.015000 -0.018000
vn -0.068517 -3.097960 -3.140098
v -0.060000 -0.015000 -0.018000
vn -0.068517 -3.097960 3.140098
v -0.060000 -0.015000 0.018000
vn -0.273547 -3.054326 3.126659
v -0.061569 -0.015000 0.017932
vn -3.126660 -3.054334 -0.273546
v -0.077932 -0.015000 -0.001569
vn -3.090920 -3.054318 -0.545011
v -0.077727 -0.015000 -0.003126
vn -3.031657 -3.054331 0.812334
v -0.077387 -0.015000 0.004659
vn -1.073468 -3.054327 -2.949321
v -0.066156 -0.015000 -0.016914
vn -0.812330 -3.054324 -3.031657
v -0.064659 -0.015000 -0.017387
vn 2.570992 -3.054324 1.800229
v 0.074745 -0.015000 0.010324
vn 2.404306 -3.054326 2.017458
v 0.073789 -0.015000 0.011570
vn -0.545011 -3.054327 3.090920
v -0.063126 -0.015000 0.017727
vn -0.812330 -3.054324 3.031657
v -0.064659 -0.015000 0.017387
vn -1.073468 -3.054327 2.949321
v -0.066156 -0.015000 0.016914
vn -2.949322 -3.054325 1.073463
v -0.076914 -0.015000 0.006156
vn -2.844540 -3.054326 1.326431
v -0.076314 -0.015000 0.007607
vn -0.545011 -3.054327 -3.090920
v -0.063126 -0.015000 -0.017727
vn -0.273547 -3.054326 -3.126659
v -0.061569 -0.015000 -0.017932
vn 1.800226 -3.054326 -2.570994
v 0.070324 -0.015000 -0.014745
vn 0.273547 -3.054326 -3.126659
v 0.061569 -0.015000 -0.017932
vn -1.326431 -3.054327 2.844540
v -0.067607 -0.015000 0.016314
vn -1.569300 -3.054326 2.718110
v -0.069000 -0.015000 0.015588
vn -1.800226 -3.054326 2.570994
v -0.070324 -0.015000 0.014745
vn -2.017457 -3.054322 2.404307
v -0.071570 -0.015000 0.013789
vn -2.219329 -3.054331 2.219326
v -0.072728 -0.015000 0.012728
vn -2.404306 -3.054326 2.017458
v -0.073789 -0.015000 0.011570
vn -3.031657 -3.054331 -0.812334
v -0.077387 -0.015000 -0.004659
vn -2.949322 -3.054325 -1.073463
v -0.076914 -0.015000 -0.006156
vn -2.844540 -3.054326 -1.326431
v -0.076314 -0.015000 -0.007607
vn -2.404306 -3.054326 -2.017458
v -0.073789 -0.015000 -0.011570
vn -2.219329 -3.054331 -2.219326
v -0.072728 -0.015000 -0.012728
vn -2.017457 -3.054322 -2.404307
v -0.071570 -0.015000 -0.013789
vn -1.800226 -3.054326 -2.570994
v -0.070324 -0.015000 -0.014745
vn -1.569300 -3.054326 -2.718110
v -0.069000 -0.015000 -0.015588
vn -1.326431 -3.054327 -2.844540
v -0.067607 -0.015000 -0.016314
vn 2.017457 -3.054322 -2.404307
v 0.071570 -0.015000 -0.013789
vn 2.219329 -3.054331 -2.219326
v 0.072728 -0.015000 -0.012728
vn 2.404306 -3.054326 -2.017458
v 0.073789 -0.015000 -0.011570
vn 2.219329 -3.054331 2.219326
v 0.072728 -0.015000 0.012728
vn 2.017457 -3.054322 2.404307
v 0.071570 -0.015000 0.013789
vn 1.800226 -3.054326 2.570994
v 0.070324 -0.015000 0.014745
vn -2.570992 -3.054324 1.800229
v -0.074745 -0.015000 0.010324
vn -2.718110 -3.054328 1.569300
v -0.075588 -0.015000 0.009000
vn -3.138602 -3.054320 -0.000000
v -0.078000 -0.015000 -0.000000
vn -3.090920 -3.054318 0.545011
v -0.077727 -0.015000 0.003126
vn -3.126660 -3.054334 0.273546
v -0.077932 -0.015000 0.001569
vn -2.718110 -3.054328 -1.569300
v -0.075588 -0.015000 -0.009000
vn -2.570992 -3.054324 -1.800229
v -0.074745 -0.015000 -0.010324
vn 2.570992 -3.054324 -1.800229
v 0.074745 -0.015000 -0.010324
vn 2.718110 -3.054328 -1.569300
v 0.075588 -0.015000 -0.009000
vn 2.844540 -3.054326 -1.326431
v 0.076314 -0.015000 -0.007607
vn 3.126660 -3.054334 0.273546
v 0.077932 -0.015000 0.001569
vn 3.090920 -3.054318 0.545011
v 0.077727 -0.015000 0.003126
vn 3.031657 -3.054331 0.812334
v 0.077387 -0.015000 0.004659
vn 2.949322 -3.054325 1.073463
v 0.076914 -0.015000 0.006156
vn 1.569300 -3.054326 2.718110
v 0.069000 -0.015000 0.015588
vn 1.326431 -3.054327 2.844540
v 0.067607 -0.015000 0.016314
vn 1.073468 -3.054327 2.949321
v 0.066156 -0.015000 0.016914
vn 0.812330 -3.054324 3.031657
v 0.064659 -0.015000 0.017387
vn 0.545011 -3.054327 3.090920
v 0.063126 -0.015000 0.017727
vn 1.073468 -3.054327 -2.949321
v 0.066156 -0.015000 -0.016914
vn 0.812330 -3.054324 -3.031657
v 0.064659 -0.015000 -0.017387
vn 0.545011 -3.054327 -3.090920
v 0.063126 -0.015000 -0.017727
vn 1.326431 -3.054327 -2.844540
v 0.067607 -0.015000 -0.016314
vn 1.569300 -3.054326 -2.718110
v 0.069000 -0.015000 -0.015588
vn 2.949322 -3.054325 -1.073463
v 0.076914 -0.015000 -0.006156
vn 3.031657 -3.054331 -0.812334
v 0.077387 -0.015000 -0.004659
vn 3.090920 -3.054318 -0.545011
v 0.077727 -0.015000 -0.003126
vn 2.844540 -3.054326 1.326431
v 0.076314 -0.015000 0.007607
vn 2.718110 -3.054328 1.569300
v 0.075588 -0.015000 0.009000
vn 3.126660 -3.054334 -0.273546
v 0.077932 -0.015000 -0.001569
vn 3.138602 -3.054320 0.000000
v 0.078000 -0.015000 0.000000
# 148 vertices, 0 vertices normals

f 1//1 2//2 3//3
f 2//2 4//4 3//3
f 5//5 6//6 3//3
f 6//6 7//7 3//3
f 7//7 8//8 3//3
f 8//8 9//9 3//3
f 3//3 9//9 10//10
f 11//11 12//12 3//3
f 12//12 13//13 3//3
f 3//3 13//13 14//14
f 3//3 15//15 16//16
f 3//3 17//17 1//1
f 17//17 18//18 1//1
f 1//1 18//18 19//19
f 19//19 20//20 1//1
f 20//20 21//21 1//1
f 1//1 21//21 22//22
f 23//23 24//24 25//25
f 4//4 26//26 3//3
f 26//26 27//27 3//3
f 3//3 27//27 28//28
f 28//28 29//29 3//3
f 29//29 30//30 3//3
f 3//3 30//30 5//5
f 10//10 31//31 3//3
f 31//31 32//32 3//3
f 3//3 32//32 33//33
f 33//33 34//34 3//3
f 34//34 35//35 3//3
f 3//3 35//35 36//36
f 14//14 37//37 3//3
f 37//37 38//38 3//3
f 3//3 38//38 15//15
f 16//16 39//39 3//3
f 39//39 40//40 3//3
f 3//3 40//40 41//41
f 23//23 25//25 42//42
f 25//25 43//43 22//22
f 43//43 44//44 22//22
f 22//22 44//44 45//45
f 41//41 46//46 3//3
f 46//46 47//47 3//3
f 3//3 47//47 48//48
f 47//47 49//49 48//48
f 22//22 50//50 25//25
f 50//50 51//51 25//25
f 25//25 51//51 52//52
f 52//52 53//53 25//25
f 53//53 54//54 25//25
f 25//25 54//54 55//55
f 36//36 56//56 3//3
f 56//56 57//57 3//3
f 3//3 57//57 11//11
f 55//55 58//58 25//25
f 58//58 59//59 25//25
f 25//25 59//59 42//42
f 24//24 60//60 25//25
f 60//60 61//61 25//25
f 25//25 61//61 62//62
f 61//61 63//63 62//62
f 45//45 64//64 22//22
f 64//64 65//65 22//22
f 22//22 65//65 66//66
f 67//67 68//68 22//22
f 68//68 69//69 22//22
f 22//22 69//69 1//1
f 66//66 70//70 22//22
f 70//70 71//71 22//22
f 22//22 71//71 72//72
f 72//72 73//73 22//22
f 73//73 74//74 22//22
f 22//22 74//74 67//67
f 75//75 76//76 77//77
f 77//77 76//76 78//78
f 76//76 79//79 78//78
f 78//78 79//79 80//80
f 81//81 82//82 83//83
f 84//84 85//85 83//83
f 86//86 87//87 77//77
f 80//80 88//88 78//78
f 88//88 89//89 78//78
f 78//78 89//89 90//90
f 83//83 78//78 91//91
f 78//78 92//92 91//91
f 85//85 93//93 83//83
f 93//93 94//94 83//83
f 83//83 94//94 78//78
f 95//95 77//77 96//96
f 90//90 97//97 78//78
f 97//97 98//98 78//78
f 78//78 98//98 99//99
f 99//99 100//100 78//78
f 100//100 101//101 78//78
f 78//78 101//101 102//102
f 82//82 103//103 83//83
f 103//103 104//104 83//83
f 83//83 104//104 105//105
f 106//106 107//107 83//83
f 107//107 108//108 83//83
f 83//83 108//108 109//109
f 109//109 110//110 83//83
f 110//110 111//111 83//83
f 83//83 111//111 84//84
f 95//95 112//112 77//77
f 112//112 113//113 77//77
f 77//77 113//113 114//114
f 87//87 115//115 77//77
f 115//115 116//116 77//77
f 77//77 116//116 117//117
f 102//102 118//118 78//78
f 118//118 119//119 78//78
f 78//78 119//119 92//92
f 81//81 83//83 120//120
f 83//83 121//121 120//120
f 120//120 121//121 122//122
f 105//105 123//123 83//83
f 123//123 124//124 83//83
f 83//83 124//124 106//106
f 114//114 125//125 77//77
f 125//125 126//126 77//77
f 77//77 126//126 127//127
f 128//128 129//129 77//77
f 129//129 130//130 77//77
f 77//77 130//130 131//131
f 117//117 132//132 77//77
f 132//132 133//133 77//77
f 77//77 133//133 134//134
f 134//134 135//135 77//77
f 135//135 136//136 77//77
f 77//77 136//136 75//75
f 137//137 96//96 138//138
f 96//96 139//139 138//138
f 137//137 140//140 96//96
f 140//140 141//141 96//96
f 96//96 141//141 95//95
f 127//127 142//142 77//77
f 142//142 143//143 77//77
f 77//77 143//143 144//144
f 131//131 145//145 77//77
f 145//145 146//146 77//77
f 77//77 146//146 86//86
f 144//144 147//147 77//77
f 147//147 148//148 77//77
f 77//77 148//148 128//128
f 79//79 76//76 1//1
f 76//76 2//2 1//1
f 77//77 3//3 48//48
f 77//77 48//48 96//96
f 48//48 49//49 96//96
f 96//96 49//49 139//139
f 49//49 47//47 139//139
f 139//139 47//47 138//138
f 47//47 46//46 138//138
f 138//138 46//46 137//137
f 46//46 41//41 137//137
f 137//137 41//41 140//140
f 41//41 40//40 140//140
f 140//140 40//40 141//141
f 40//40 39//39 141//141
f 141//141 39//39 95//95
f 39//39 16//16 95//95
f 95//95 16//16 112//112
f 16//16 15//15 112//112
f 112//112 15//15 113//113
f 15//15 38//38 113//113
f 113//113 38//38 114//114
f 38//38 37//37 114//114
f 114//114 37//37 125//125
f 37//37 14//14 125//125
f 125//125 14//14 126//126
f 14//14 13//13 126//126
f 126//126 13//13 127//127
f 13//13 12//12 127//127
f 127//127 12//12 142//142
f 12//12 11//11 142//142
f 142//142 11//11 143//143
f 11//11 57//57 143//143
f 143//143 57//57 144//144
f 57//57 56//56 144//144
f 144//144 56//56 147//147
f 56//56 36//36 147//147
f 147//147 36//36 148//148
f 36//36 35//35 148//148
f 148//148 35//35 128//128
f 35//35 34//34 128//128
f 128//128 34//34 129//129
f 34//34 33//33 129//129
f 129//129 33//33 130//130
f 33//33 32//32 130//130
f 130//130 32//32 131//131
f 32//32 31//31 131//131
f 131//131 31//31 145//145
f 31//31 10//10 145//145
f 145//145 10//10 146//146
f 10//10 9//9 146//146
f 146//146 9//9 86//86
f 9//9 8//8 86//86
f 86//86 8//8 87//87
f 8//8 7//7 87//87
f 87//87 7//7 115//115
f 7//7 6//6 115//115
f 115//115 6//6 116//116
f 6//6 5//5 116//116
f 116//116 5//5 117//117
f 5//5 30//30 117//117
f 117//117 30//30 132//132
f 30//30 29//29 132//132
f 132//132 29//29 133//133
f 29//29 28//28 133//133
f 133//133 28//28 134//134
f 28//28 27//27 134//134
f 134//134 27//27 135//135
f 27//27 26//26 135//135
f 135//135 26//26 136//136
f 26//26 4//4 136//136
f 136//136 4//4 75//75
f 4//4 2//2 75//75
f 75//75 2//2 76//76
f 79//79 1//1 69//69
f 79//79 69//69 80//80
f 69//69 68//68 80//80
f 80//80 68//68 88//88
f 68//68 67//67 88//88
f 88//88 67//67 89//89
f 67//67 74//74 89//89
f 89//89 74//74 90//90
f 74//74 73//73 90//90
f 90//90 73//73 97//97
f 73//73 72//72 97//97
f 97//97 72//72 98//98
f 72//72 71//71 98//98
f 98//98 71//71 99//99
f 71//71 70//70 99//99
f 99//99 70//70 100//100
f 70//70 66//66 100//100
f 100//100 66//66 101//101
f 66//66 65//65 101//101
f 101//101 65//65 102//102
f 65//65 64//64 102//102
f 102//102 64//64 118//118
f 64//64 45//45 118//118
f 118//118 45//45 119//119
f 45//45 44//44 119//119
f 119//119 44//44 92//92
f 44//44 43//43 92//92
f 92//92 43//43 91//91
f 43//43 25//25 91//91
f 91//91 25//25 83//83
f 25//25 62//62 83//83
f 83//83 62//62 121//121
f 62//62 63//63 121//121
f 121//121 63//63 122//122
f 63//63 61//61 122//122
f 122//122 61//61 120//120
f 61//61 60//60 120//120
f 120//120 60//60 81//81
f 60//60 24//24 81//81
f 81//81 24//24 82//82
f 24//24 23//23 82//82
f 82//82 23//23 103//103
f 23//23 42//42 103//103
f 103//103 42//42 104//104
f 42//42 59//59 104//104
f 104//104 59//59 105//105
f 59//59 58//58 105//105
f 105//105 58//58 123//123
f 58//58 55//55 123//123
f 123//123 55//55 124//124
f 55//55 54//54 124//124
f 124//124 54//54 106//106
f 54//54 53//53 106//106
f 106//106 53//53 107//107
f 53//53 52//52 107//107
f 107//107 52//52 108//108
f 52//52 51//51 108//108
f 108//108 51//51 109//109
f 51//51 50//50 109//109
f 109//109 50//50 110//110
f 50//50 22//22 110//110
f 110//110 22//22 111//111
f 22//22 21//21 111//111
f 111//111 21//21 84//84
f 21//21 20//20 84//84
f 84//84 20//20 85//85
f 20//20 19//19 85//85
f 85//85 19//19 93//93
f 19//19 18//18 93//93
f 93//93 18//18 94//94
f 18//18 17//17 94//94
f 94//94 17//17 78//78
f 77//77 78//78 3//3
f 78//78 17//17 3//3
# 292 faces, 0 coords texture

# End of File
