####
#
# OBJ File Generated by Meshlab
#
####
# Object 5015.obj
#
# Vertices: 146
# Faces: 288
#
####
vn 0.545013 3.054326 -3.090920
v 0.004341 0.000000 -0.024620
vn 0.273547 3.054326 -3.126659
v 0.002179 0.000000 -0.024905
vn 0.000000 6.283185 0.000000
v 0.000000 0.000000 0.000000
vn 0.000000 3.054326 -3.138603
v 0.000000 0.000000 -0.025000
vn -0.273547 3.054326 -3.126659
v -0.002179 0.000000 -0.024905
vn 1.326431 3.054326 -2.844540
v 0.010565 0.000000 -0.022658
vn 1.073465 3.054326 -2.949322
v 0.008551 0.000000 -0.023492
vn 0.812330 3.054326 -3.031657
v 0.006470 0.000000 -0.024148
vn 2.017455 3.054328 -2.404309
v 0.016070 0.000000 -0.019151
vn 1.800229 3.054325 -2.570992
v 0.014339 0.000000 -0.020479
vn 1.569301 3.054327 -2.718110
v 0.012500 0.000000 -0.021651
vn 2.570992 3.054325 -1.800229
v 0.020479 0.000000 -0.014339
vn 2.404309 3.054328 -2.017455
v 0.019151 0.000000 -0.016070
vn 2.219327 3.054324 -2.219327
v 0.017678 0.000000 -0.017678
vn 2.949322 3.054326 -1.073465
v 0.023492 0.000000 -0.008551
vn 2.844540 3.054326 -1.326431
v 0.022658 0.000000 -0.010565
vn 2.718110 3.054327 -1.569301
v 0.021651 0.000000 -0.012500
vn 3.126659 3.054326 -0.273547
v 0.024905 0.000000 -0.002179
vn 3.090920 3.054326 -0.545013
v 0.024620 0.000000 -0.004341
vn 3.031657 3.054326 -0.812330
v 0.024148 0.000000 -0.006470
vn 3.090920 3.054326 0.545013
v 0.024620 0.000000 0.004341
vn 3.126659 3.054326 0.273547
v 0.024905 0.000000 0.002179
vn 3.138603 3.054326 0.000000
v 0.025000 0.000000 0.000000
vn 2.844540 3.054326 1.326431
v 0.022658 0.000000 0.010565
vn 2.949322 3.054326 1.073465
v 0.023492 0.000000 0.008551
vn 3.031657 3.054326 0.812330
v 0.024148 0.000000 0.006470
vn 2.404309 3.054328 2.017455
v 0.019151 0.000000 0.016070
vn 2.570992 3.054325 1.800229
v 0.020479 0.000000 0.014339
vn 2.718110 3.054327 1.569301
v 0.021651 0.000000 0.012500
vn 1.800229 3.054325 2.570992
v 0.014339 0.000000 0.020479
vn 2.017455 3.054328 2.404309
v 0.016070 0.000000 0.019151
vn 2.219327 3.054324 2.219327
v 0.017678 0.000000 0.017678
vn 1.073465 3.054326 2.949322
v 0.008551 0.000000 0.023492
vn 1.326431 3.054326 2.844540
v 0.010565 0.000000 0.022658
vn 1.569301 3.054327 2.718110
v 0.012500 0.000000 0.021651
vn 0.273547 3.054326 3.126659
v 0.002179 0.000000 0.024905
vn 0.545013 3.054326 3.090920
v 0.004341 0.000000 0.024620
vn 0.812330 3.054326 3.031657
v 0.006470 0.000000 0.024148
vn -0.545013 3.054326 3.090920
v -0.004341 0.000000 0.024620
vn -0.273547 3.054326 3.126659
v -0.002179 0.000000 0.024905
vn 0.000000 3.054326 3.138603
v 0.000000 0.000000 0.025000
vn -1.326431 3.054326 2.844540
v -0.010565 0.000000 0.022658
vn -1.073465 3.054326 2.949322
v -0.008551 0.000000 0.023492
vn -0.812330 3.054326 3.031657
v -0.006470 0.000000 0.024148
vn -2.017455 3.054328 2.404309
v -0.016070 0.000000 0.019151
vn -1.800229 3.054325 2.570992
v -0.014339 0.000000 0.020479
vn -1.569301 3.054327 2.718110
v -0.012500 0.000000 0.021651
vn -2.570992 3.054325 1.800229
v -0.020479 0.000000 0.014339
vn -2.404309 3.054328 2.017455
v -0.019151 0.000000 0.016070
vn -2.219327 3.054324 2.219327
v -0.017678 0.000000 0.017678
vn -2.949322 3.054326 1.073465
v -0.023492 0.000000 0.008551
vn -2.844540 3.054326 1.326431
v -0.022658 0.000000 0.010565
vn -2.718110 3.054327 1.569301
v -0.021651 0.000000 0.012500
vn -3.126659 3.054326 0.273547
v -0.024905 0.000000 0.002179
vn -3.090920 3.054326 0.545013
v -0.024620 0.000000 0.004341
vn -3.031657 3.054326 0.812330
v -0.024148 0.000000 0.006470
vn -3.090920 3.054326 -0.545013
v -0.024620 0.000000 -0.004341
vn -3.126659 3.054326 -0.273547
v -0.024905 0.000000 -0.002179
vn -3.138603 3.054326 -0.000000
v -0.025000 0.000000 -0.000000
vn -2.844540 3.054326 -1.326431
v -0.022658 0.000000 -0.010565
vn -2.949322 3.054326 -1.073465
v -0.023492 0.000000 -0.008551
vn -3.031657 3.054326 -0.812330
v -0.024148 0.000000 -0.006470
vn -2.404309 3.054328 -2.017455
v -0.019151 0.000000 -0.016070
vn -2.570992 3.054325 -1.800229
v -0.020479 0.000000 -0.014339
vn -2.718110 3.054327 -1.569301
v -0.021651 0.000000 -0.012500
vn -1.800229 3.054325 -2.570992
v -0.014339 0.000000 -0.020479
vn -2.017455 3.054328 -2.404309
v -0.016070 0.000000 -0.019151
vn -2.219327 3.054324 -2.219327
v -0.017678 0.000000 -0.017678
vn -1.073465 3.054326 -2.949322
v -0.008551 0.000000 -0.023492
vn -1.326431 3.054326 -2.844540
v -0.010565 0.000000 -0.022658
vn -1.569301 3.054327 -2.718110
v -0.012500 0.000000 -0.021651
vn -0.545013 3.054326 -3.090920
v -0.004341 0.000000 -0.024620
vn -0.812330 3.054326 -3.031657
v -0.006470 0.000000 -0.024148
vn 0.273547 -3.054326 3.126659
v 0.002179 -0.034000 0.024905
vn 0.545013 -3.054326 3.090920
v 0.004341 -0.034000 0.024620
vn 0.812330 -3.054326 3.031657
v 0.006470 -0.034000 0.024148
vn 1.073465 -3.054326 2.949322
v 0.008551 -0.034000 0.023492
vn 1.326431 -3.054326 2.844540
v 0.010565 -0.034000 0.022658
vn 1.569301 -3.054327 2.718110
v 0.012500 -0.034000 0.021651
vn 1.800229 -3.054325 2.570992
v 0.014339 -0.034000 0.020479
vn 2.017455 -3.054328 2.404309
v 0.016070 -0.034000 0.019151
vn 2.219327 -3.054324 2.219327
v 0.017678 -0.034000 0.017678
vn 2.404309 -3.054328 2.017455
v 0.019151 -0.034000 0.016070
vn 2.570992 -3.054325 1.800229
v 0.020479 -0.034000 0.014339
vn 2.718110 -3.054327 1.569301
v 0.021651 -0.034000 0.012500
vn 2.844540 -3.054326 1.326431
v 0.022658 -0.034000 0.010565
vn 2.949322 -3.054326 1.073465
v 0.023492 -0.034000 0.008551
vn 3.031657 -3.054326 0.812330
v 0.024148 -0.034000 0.006470
vn 3.090920 -3.054326 0.545013
v 0.024620 -0.034000 0.004341
vn 3.126659 -3.054326 0.273547
v 0.024905 -0.034000 0.002179
vn 3.138603 -3.054326 0.000000
v 0.025000 -0.034000 0.000000
vn 3.126659 -3.054326 -0.273547
v 0.024905 -0.034000 -0.002179
vn 3.090920 -3.054326 -0.545013
v 0.024620 -0.034000 -0.004341
vn 3.031657 -3.054326 -0.812330
v 0.024148 -0.034000 -0.006470
vn 2.949322 -3.054326 -1.073465
v 0.023492 -0.034000 -0.008551
vn 2.844540 -3.054326 -1.326431
v 0.022658 -0.034000 -0.010565
vn 2.718110 -3.054327 -1.569301
v 0.021651 -0.034000 -0.012500
vn 2.570992 -3.054325 -1.800229
v 0.020479 -0.034000 -0.014339
vn 2.404309 -3.054328 -2.017455
v 0.019151 -0.034000 -0.016070
vn 2.219327 -3.054324 -2.219327
v 0.017678 -0.034000 -0.017678
vn 2.017455 -3.054328 -2.404309
v 0.016070 -0.034000 -0.019151
vn 1.800229 -3.054325 -2.570992
v 0.014339 -0.034000 -0.020479
vn 1.569301 -3.054327 -2.718110
v 0.012500 -0.034000 -0.021651
vn 1.326431 -3.054326 -2.844540
v 0.010565 -0.034000 -0.022658
vn 1.073465 -3.054326 -2.949322
v 0.008551 -0.034000 -0.023492
vn 0.812330 -3.054326 -3.031657
v 0.006470 -0.034000 -0.024148
vn 0.545013 -3.054326 -3.090920
v 0.004341 -0.034000 -0.024620
vn 0.273547 -3.054326 -3.126659
v 0.002179 -0.034000 -0.024905
vn 0.000000 -3.054326 -3.138603
v 0.000000 -0.034000 -0.025000
vn -0.273547 -3.054326 -3.126659
v -0.002179 -0.034000 -0.024905
vn -0.545013 -3.054326 -3.090920
v -0.004341 -0.034000 -0.024620
vn -0.812330 -3.054326 -3.031657
v -0.006470 -0.034000 -0.024148
vn -1.073465 -3.054326 -2.949322
v -0.008551 -0.034000 -0.023492
vn -1.326431 -3.054326 -2.844540
v -0.010565 -0.034000 -0.022658
vn -1.569301 -3.054327 -2.718110
v -0.012500 -0.034000 -0.021651
vn -1.800229 -3.054325 -2.570992
v -0.014339 -0.034000 -0.020479
vn -2.017455 -3.054328 -2.404309
v -0.016070 -0.034000 -0.019151
vn -2.219327 -3.054324 -2.219327
v -0.017678 -0.034000 -0.017678
vn -2.404309 -3.054328 -2.017455
v -0.019151 -0.034000 -0.016070
vn -2.570992 -3.054325 -1.800229
v -0.020479 -0.034000 -0.014339
vn -2.718110 -3.054327 -1.569301
v -0.021651 -0.034000 -0.012500
vn -2.844540 -3.054326 -1.326431
v -0.022658 -0.034000 -0.010565
vn -2.949322 -3.054326 -1.073465
v -0.023492 -0.034000 -0.008551
vn -3.031657 -3.054326 -0.812330
v -0.024148 -0.034000 -0.006470
vn -3.090920 -3.054326 -0.545013
v -0.024620 -0.034000 -0.004341
vn -3.126659 -3.054326 -0.273547
v -0.024905 -0.034000 -0.002179
vn -3.138603 -3.054326 -0.000000
v -0.025000 -0.034000 -0.000000
vn -3.126659 -3.054326 0.273547
v -0.024905 -0.034000 0.002179
vn -3.090920 -3.054326 0.545013
v -0.024620 -0.034000 0.004341
vn -3.031657 -3.054326 0.812330
v -0.024148 -0.034000 0.006470
vn -2.949322 -3.054326 1.073465
v -0.023492 -0.034000 0.008551
vn -2.844540 -3.054326 1.326431
v -0.022658 -0.034000 0.010565
vn -2.718110 -3.054327 1.569301
v -0.021651 -0.034000 0.012500
vn -2.570992 -3.054325 1.800229
v -0.020479 -0.034000 0.014339
vn -2.404309 -3.054328 2.017455
v -0.019151 -0.034000 0.016070
vn -2.219327 -3.054324 2.219327
v -0.017678 -0.034000 0.017678
vn -2.017455 -3.054328 2.404309
v -0.016070 -0.034000 0.019151
vn -1.800229 -3.054325 2.570992
v -0.014339 -0.034000 0.020479
vn -1.569301 -3.054327 2.718110
v -0.012500 -0.034000 0.021651
vn -1.326431 -3.054326 2.844540
v -0.010565 -0.034000 0.022658
vn -1.073465 -3.054326 2.949322
v -0.008551 -0.034000 0.023492
vn -0.812330 -3.054326 3.031657
v -0.006470 -0.034000 0.024148
vn -0.545013 -3.054326 3.090920
v -0.004341 -0.034000 0.024620
vn -0.273547 -3.054326 3.126659
v -0.002179 -0.034000 0.024905
vn -0.000000 -3.054326 3.138603
v 0.000000 -0.034000 0.025000
vn 0.000000 -6.283185 0.000000
v 0.000000 -0.034000 0.000000
# 146 vertices, 0 vertices normals

f 1//1 2//2 3//3
f 2//2 4//4 3//3
f 3//3 4//4 5//5
f 6//6 7//7 3//3
f 7//7 8//8 3//3
f 3//3 8//8 1//1
f 9//9 10//10 3//3
f 10//10 11//11 3//3
f 3//3 11//11 6//6
f 12//12 13//13 3//3
f 13//13 14//14 3//3
f 3//3 14//14 9//9
f 15//15 16//16 3//3
f 16//16 17//17 3//3
f 3//3 17//17 12//12
f 18//18 19//19 3//3
f 19//19 20//20 3//3
f 3//3 20//20 15//15
f 21//21 22//22 3//3
f 22//22 23//23 3//3
f 3//3 23//23 18//18
f 24//24 25//25 3//3
f 25//25 26//26 3//3
f 3//3 26//26 21//21
f 27//27 28//28 3//3
f 28//28 29//29 3//3
f 3//3 29//29 24//24
f 30//30 31//31 3//3
f 31//31 32//32 3//3
f 3//3 32//32 27//27
f 33//33 34//34 3//3
f 34//34 35//35 3//3
f 3//3 35//35 30//30
f 36//36 37//37 3//3
f 37//37 38//38 3//3
f 3//3 38//38 33//33
f 39//39 40//40 3//3
f 40//40 41//41 3//3
f 3//3 41//41 36//36
f 42//42 43//43 3//3
f 43//43 44//44 3//3
f 3//3 44//44 39//39
f 45//45 46//46 3//3
f 46//46 47//47 3//3
f 3//3 47//47 42//42
f 48//48 49//49 3//3
f 49//49 50//50 3//3
f 3//3 50//50 45//45
f 51//51 52//52 3//3
f 52//52 53//53 3//3
f 3//3 53//53 48//48
f 54//54 55//55 3//3
f 55//55 56//56 3//3
f 3//3 56//56 51//51
f 57//57 58//58 3//3
f 58//58 59//59 3//3
f 3//3 59//59 54//54
f 60//60 61//61 3//3
f 61//61 62//62 3//3
f 3//3 62//62 57//57
f 63//63 64//64 3//3
f 64//64 65//65 3//3
f 3//3 65//65 60//60
f 66//66 67//67 3//3
f 67//67 68//68 3//3
f 3//3 68//68 63//63
f 69//69 70//70 3//3
f 70//70 71//71 3//3
f 3//3 71//71 66//66
f 5//5 72//72 3//3
f 72//72 73//73 3//3
f 3//3 73//73 69//69
f 41//41 74//74 36//36
f 74//74 75//75 36//36
f 36//36 75//75 37//37
f 75//75 76//76 37//37
f 37//37 76//76 38//38
f 76//76 77//77 38//38
f 38//38 77//77 33//33
f 77//77 78//78 33//33
f 33//33 78//78 34//34
f 78//78 79//79 34//34
f 34//34 79//79 35//35
f 79//79 80//80 35//35
f 35//35 80//80 30//30
f 80//80 81//81 30//30
f 30//30 81//81 31//31
f 81//81 82//82 31//31
f 31//31 82//82 32//32
f 82//82 83//83 32//32
f 32//32 83//83 27//27
f 83//83 84//84 27//27
f 27//27 84//84 28//28
f 84//84 85//85 28//28
f 28//28 85//85 29//29
f 85//85 86//86 29//29
f 29//29 86//86 24//24
f 86//86 87//87 24//24
f 24//24 87//87 25//25
f 87//87 88//88 25//25
f 25//25 88//88 26//26
f 88//88 89//89 26//26
f 26//26 89//89 21//21
f 89//89 90//90 21//21
f 21//21 90//90 22//22
f 90//90 91//91 22//22
f 22//22 91//91 23//23
f 91//91 92//92 23//23
f 23//23 92//92 18//18
f 92//92 93//93 18//18
f 18//18 93//93 19//19
f 93//93 94//94 19//19
f 19//19 94//94 20//20
f 94//94 95//95 20//20
f 20//20 95//95 15//15
f 95//95 96//96 15//15
f 15//15 96//96 16//16
f 96//96 97//97 16//16
f 16//16 97//97 17//17
f 97//97 98//98 17//17
f 17//17 98//98 12//12
f 98//98 99//99 12//12
f 12//12 99//99 13//13
f 99//99 100//100 13//13
f 13//13 100//100 14//14
f 100//100 101//101 14//14
f 14//14 101//101 9//9
f 101//101 102//102 9//9
f 9//9 102//102 10//10
f 102//102 103//103 10//10
f 10//10 103//103 11//11
f 103//103 104//104 11//11
f 11//11 104//104 6//6
f 104//104 105//105 6//6
f 6//6 105//105 7//7
f 105//105 106//106 7//7
f 7//7 106//106 8//8
f 106//106 107//107 8//8
f 8//8 107//107 1//1
f 107//107 108//108 1//1
f 1//1 108//108 2//2
f 108//108 109//109 2//2
f 2//2 109//109 4//4
f 109//109 110//110 4//4
f 4//4 110//110 5//5
f 110//110 111//111 5//5
f 5//5 111//111 72//72
f 111//111 112//112 72//72
f 72//72 112//112 73//73
f 112//112 113//113 73//73
f 73//73 113//113 69//69
f 113//113 114//114 69//69
f 69//69 114//114 70//70
f 114//114 115//115 70//70
f 70//70 115//115 71//71
f 115//115 116//116 71//71
f 71//71 116//116 66//66
f 116//116 117//117 66//66
f 66//66 117//117 67//67
f 117//117 118//118 67//67
f 67//67 118//118 68//68
f 118//118 119//119 68//68
f 68//68 119//119 63//63
f 119//119 120//120 63//63
f 63//63 120//120 64//64
f 120//120 121//121 64//64
f 64//64 121//121 65//65
f 121//121 122//122 65//65
f 65//65 122//122 60//60
f 122//122 123//123 60//60
f 60//60 123//123 61//61
f 123//123 124//124 61//61
f 61//61 124//124 62//62
f 124//124 125//125 62//62
f 62//62 125//125 57//57
f 125//125 126//126 57//57
f 57//57 126//126 58//58
f 126//126 127//127 58//58
f 58//58 127//127 59//59
f 127//127 128//128 59//59
f 59//59 128//128 54//54
f 128//128 129//129 54//54
f 54//54 129//129 55//55
f 129//129 130//130 55//55
f 55//55 130//130 56//56
f 130//130 131//131 56//56
f 56//56 131//131 51//51
f 131//131 132//132 51//51
f 51//51 132//132 52//52
f 132//132 133//133 52//52
f 52//52 133//133 53//53
f 133//133 134//134 53//53
f 53//53 134//134 48//48
f 134//134 135//135 48//48
f 48//48 135//135 49//49
f 135//135 136//136 49//49
f 49//49 136//136 50//50
f 136//136 137//137 50//50
f 50//50 137//137 45//45
f 137//137 138//138 45//45
f 45//45 138//138 46//46
f 138//138 139//139 46//46
f 46//46 139//139 47//47
f 139//139 140//140 47//47
f 47//47 140//140 42//42
f 140//140 141//141 42//42
f 42//42 141//141 43//43
f 141//141 142//142 43//43
f 43//43 142//142 44//44
f 142//142 143//143 44//44
f 44//44 143//143 39//39
f 143//143 144//144 39//39
f 39//39 144//144 40//40
f 144//144 145//145 40//40
f 40//40 145//145 41//41
f 145//145 74//74 41//41
f 111//111 110//110 146//146
f 110//110 109//109 146//146
f 146//146 109//109 108//108
f 114//114 113//113 146//146
f 113//113 112//112 146//146
f 146//146 112//112 111//111
f 117//117 116//116 146//146
f 116//116 115//115 146//146
f 146//146 115//115 114//114
f 120//120 119//119 146//146
f 119//119 118//118 146//146
f 146//146 118//118 117//117
f 123//123 122//122 146//146
f 122//122 121//121 146//146
f 146//146 121//121 120//120
f 126//126 125//125 146//146
f 125//125 124//124 146//146
f 146//146 124//124 123//123
f 129//129 128//128 146//146
f 128//128 127//127 146//146
f 146//146 127//127 126//126
f 132//132 131//131 146//146
f 131//131 130//130 146//146
f 146//146 130//130 129//129
f 135//135 134//134 146//146
f 134//134 133//133 146//146
f 146//146 133//133 132//132
f 138//138 137//137 146//146
f 137//137 136//136 146//146
f 146//146 136//136 135//135
f 141//141 140//140 146//146
f 140//140 139//139 146//146
f 146//146 139//139 138//138
f 144//144 143//143 146//146
f 143//143 142//142 146//146
f 146//146 142//142 141//141
f 75//75 74//74 146//146
f 74//74 145//145 146//146
f 146//146 145//145 144//144
f 78//78 77//77 146//146
f 77//77 76//76 146//146
f 146//146 76//76 75//75
f 81//81 80//80 146//146
f 80//80 79//79 146//146
f 146//146 79//79 78//78
f 84//84 83//83 146//146
f 83//83 82//82 146//146
f 146//146 82//82 81//81
f 87//87 86//86 146//146
f 86//86 85//85 146//146
f 146//146 85//85 84//84
f 90//90 89//89 146//146
f 89//89 88//88 146//146
f 146//146 88//88 87//87
f 93//93 92//92 146//146
f 92//92 91//91 146//146
f 146//146 91//91 90//90
f 96//96 95//95 146//146
f 95//95 94//94 146//146
f 146//146 94//94 93//93
f 99//99 98//98 146//146
f 98//98 97//97 146//146
f 146//146 97//97 96//96
f 102//102 101//101 146//146
f 101//101 100//100 146//146
f 146//146 100//100 99//99
f 105//105 104//104 146//146
f 104//104 103//103 146//146
f 146//146 103//103 102//102
f 108//108 107//107 146//146
f 107//107 106//106 146//146
f 146//146 106//106 105//105
# 288 faces, 0 coords texture

# End of File
