####
#
# OBJ File Generated by Meshlab
#
####
# Object link.obj
#
# Vertices: 148
# Faces: 292
#
####
vn 2.949321 3.054327 -1.073466
v 0.056914 0.000000 -0.006156
vn 2.844540 3.054326 -1.326431
v 0.056314 0.000000 -0.007607
vn 0.068517 3.097960 3.140098
v 0.040000 0.000000 0.018000
vn 2.718109 3.054326 -1.569303
v 0.055588 0.000000 -0.009000
vn 0.812330 3.054324 -3.031657
v 0.044659 0.000000 -0.017387
vn 0.545012 3.054328 -3.090920
v 0.043126 0.000000 -0.017727
vn -0.068517 3.097960 -3.140098
v -0.040000 0.000000 -0.018000
vn -2.949321 3.054327 1.073466
v -0.056914 0.000000 0.006156
vn -2.844540 3.054326 1.326431
v -0.056314 0.000000 0.007607
vn -2.718109 3.054326 1.569303
v -0.055588 0.000000 0.009000
vn -2.570993 3.054328 1.800229
v -0.054745 0.000000 0.010324
vn -2.404310 3.054326 2.017454
v -0.053789 0.000000 0.011570
vn 2.844540 3.054326 1.326431
v 0.056314 0.000000 0.007607
vn 2.949321 3.054327 1.073466
v 0.056914 0.000000 0.006156
vn 3.031657 3.054324 0.812330
v 0.057387 0.000000 0.004659
vn 3.090920 3.054327 0.545012
v 0.057727 0.000000 0.003126
vn 2.570993 3.054328 -1.800229
v 0.054745 0.000000 -0.010324
vn 2.404310 3.054326 -2.017454
v 0.053789 0.000000 -0.011570
vn 2.219327 3.054326 -2.219327
v 0.052728 0.000000 -0.012728
vn -0.068517 3.097960 3.140098
v -0.040000 0.000000 0.018000
vn 0.068517 3.097960 -3.140098
v 0.040000 0.000000 -0.018000
vn 0.273547 3.054325 -3.126659
v 0.041569 0.000000 -0.017932
vn 0.545012 3.054328 3.090920
v 0.043126 0.000000 0.017727
vn 0.812330 3.054324 3.031657
v 0.044659 0.000000 0.017387
vn 2.718109 3.054326 1.569303
v 0.055588 0.000000 0.009000
vn 3.126659 3.054324 0.273545
v 0.057932 0.000000 0.001569
vn 3.138603 3.054329 0.000000
v 0.058000 0.000000 0.000000
vn 3.126659 3.054324 -0.273545
v 0.057932 0.000000 -0.001569
vn 3.090920 3.054327 -0.545012
v 0.057727 0.000000 -0.003126
vn 3.031657 3.054324 -0.812330
v 0.057387 0.000000 -0.004659
vn 2.017455 3.054327 -2.404309
v 0.051570 0.000000 -0.013789
vn 1.800228 3.054325 -2.570993
v 0.050324 0.000000 -0.014745
vn 1.569300 3.054326 -2.718110
v 0.049000 0.000000 -0.015588
vn 1.326430 3.054326 -2.844540
v 0.047607 0.000000 -0.016314
vn 1.073467 3.054327 -2.949321
v 0.046156 0.000000 -0.016914
vn -3.090920 3.054327 -0.545012
v -0.057727 0.000000 -0.003126
vn -3.126659 3.054324 -0.273545
v -0.057932 0.000000 -0.001569
vn -3.138603 3.054329 0.000000
v -0.058000 0.000000 0.000000
vn -3.126659 3.054324 0.273545
v -0.057932 0.000000 0.001569
vn -1.800228 3.054325 2.570993
v -0.050324 0.000000 0.014745
vn -1.569300 3.054326 2.718110
v -0.049000 0.000000 0.015588
vn 0.273547 3.054325 3.126659
v 0.041569 0.000000 0.017932
vn 1.073467 3.054327 2.949321
v 0.046156 0.000000 0.016914
vn 1.326430 3.054326 2.844540
v 0.047607 0.000000 0.016314
vn 2.570993 3.054328 1.800229
v 0.054745 0.000000 0.010324
vn 2.017455 3.054327 2.404309
v 0.051570 0.000000 0.013789
vn 1.800228 3.054325 2.570993
v 0.050324 0.000000 0.014745
vn 1.569300 3.054326 2.718110
v 0.049000 0.000000 0.015588
vn 2.219327 3.054326 2.219327
v 0.052728 0.000000 0.012728
vn 2.404310 3.054326 2.017454
v 0.053789 0.000000 0.011570
vn -3.090920 3.054327 0.545012
v -0.057727 0.000000 0.003126
vn -3.031657 3.054324 0.812330
v -0.057387 0.000000 0.004659
vn -2.219327 3.054326 2.219327
v -0.052728 0.000000 0.012728
vn -2.017455 3.054327 2.404309
v -0.051570 0.000000 0.013789
vn -0.545012 3.054328 -3.090920
v -0.043126 0.000000 -0.017727
vn -0.812330 3.054324 -3.031657
v -0.044659 0.000000 -0.017387
vn -1.073467 3.054327 -2.949321
v -0.046156 0.000000 -0.016914
vn -1.326430 3.054326 -2.844540
v -0.047607 0.000000 -0.016314
vn -1.569300 3.054326 -2.718110
v -0.049000 0.000000 -0.015588
vn -1.800228 3.054325 -2.570993
v -0.050324 0.000000 -0.014745
vn -2.017455 3.054327 -2.404309
v -0.051570 0.000000 -0.013789
vn -2.219327 3.054326 -2.219327
v -0.052728 0.000000 -0.012728
vn -2.404310 3.054326 -2.017454
v -0.053789 0.000000 -0.011570
vn -2.570993 3.054328 -1.800229
v -0.054745 0.000000 -0.010324
vn -2.718109 3.054326 -1.569303
v -0.055588 0.000000 -0.009000
vn -2.844540 3.054326 -1.326431
v -0.056314 0.000000 -0.007607
vn -2.949321 3.054327 -1.073466
v -0.056914 0.000000 -0.006156
vn -3.031657 3.054324 -0.812330
v -0.057387 0.000000 -0.004659
vn -0.812330 3.054324 3.031657
v -0.044659 0.000000 0.017387
vn -0.545012 3.054328 3.090920
v -0.043126 0.000000 0.017727
vn -0.273547 3.054325 3.126659
v -0.041569 0.000000 0.017932
vn -1.326430 3.054326 2.844540
v -0.047607 0.000000 0.016314
vn -1.073467 3.054327 2.949321
v -0.046156 0.000000 0.016914
vn -0.273547 3.054325 -3.126659
v -0.041569 0.000000 -0.017932
vn -0.068517 -3.097960 -3.140098
v -0.040000 -0.015000 -0.018000
vn 0.068517 -3.097960 -3.140098
v 0.040000 -0.015000 -0.018000
vn 0.068517 -3.097960 3.140098
v 0.040000 -0.015000 0.018000
vn -2.570993 -3.054328 1.800229
v -0.054745 -0.015000 0.010324
vn -2.718109 -3.054326 1.569303
v -0.055588 -0.015000 0.009000
vn -2.844540 -3.054326 1.326431
v -0.056314 -0.015000 0.007607
vn -2.949321 -3.054327 1.073466
v -0.056914 -0.015000 0.006156
vn 0.812330 -3.054324 -3.031657
v 0.044659 -0.015000 -0.017387
vn 1.073467 -3.054327 -2.949321
v 0.046156 -0.015000 -0.016914
vn 2.404310 -3.054326 -2.017454
v 0.053789 -0.015000 -0.011570
vn 2.570993 -3.054328 -1.800229
v 0.054745 -0.015000 -0.010324
vn 2.718109 -3.054326 -1.569303
v 0.055588 -0.015000 -0.009000
vn 0.273547 -3.054325 -3.126659
v 0.041569 -0.015000 -0.017932
vn 0.545012 -3.054328 -3.090920
v 0.043126 -0.015000 -0.017727
vn 2.844540 -3.054326 -1.326431
v 0.056314 -0.015000 -0.007607
vn 2.949321 -3.054327 -1.073466
v 0.056914 -0.015000 -0.006156
vn 3.031657 -3.054324 -0.812330
v 0.057387 -0.015000 -0.004659
vn 3.031657 -3.054324 0.812330
v 0.057387 -0.015000 0.004659
vn 2.949321 -3.054327 1.073466
v 0.056914 -0.015000 0.006156
vn 2.844540 -3.054326 1.326431
v 0.056314 -0.015000 0.007607
vn 2.718109 -3.054326 1.569303
v 0.055588 -0.015000 0.009000
vn -0.068517 -3.097960 3.140098
v -0.040000 -0.015000 0.018000
vn -0.273547 -3.054325 3.126659
v -0.041569 -0.015000 0.017932
vn -0.545012 -3.054328 3.090920
v -0.043126 -0.015000 0.017727
vn 1.326430 -3.054326 -2.844540
v 0.047607 -0.015000 -0.016314
vn 1.569300 -3.054326 -2.718110
v 0.049000 -0.015000 -0.015588
vn 1.800228 -3.054325 -2.570993
v 0.050324 -0.015000 -0.014745
vn 2.017455 -3.054327 -2.404309
v 0.051570 -0.015000 -0.013789
vn 2.219327 -3.054326 -2.219327
v 0.052728 -0.015000 -0.012728
vn 3.090920 -3.054327 -0.545012
v 0.057727 -0.015000 -0.003126
vn 3.126659 -3.054324 -0.273545
v 0.057932 -0.015000 -0.001569
vn 3.138603 -3.054329 0.000000
v 0.058000 -0.015000 0.000000
vn 3.126659 -3.054324 0.273545
v 0.057932 -0.015000 0.001569
vn 3.090920 -3.054327 0.545012
v 0.057727 -0.015000 0.003126
vn -3.031657 -3.054324 0.812330
v -0.057387 -0.015000 0.004659
vn -3.090920 -3.054327 0.545012
v -0.057727 -0.015000 0.003126
vn -3.126659 -3.054324 0.273545
v -0.057932 -0.015000 0.001569
vn -3.138603 -3.054329 0.000000
v -0.058000 -0.015000 0.000000
vn -3.126659 -3.054324 -0.273545
v -0.057932 -0.015000 -0.001569
vn -3.090920 -3.054327 -0.545012
v -0.057727 -0.015000 -0.003126
vn 2.570993 -3.054328 1.800229
v 0.054745 -0.015000 0.010324
vn 2.404310 -3.054326 2.017454
v 0.053789 -0.015000 0.011570
vn 1.326430 -3.054326 2.844540
v 0.047607 -0.015000 0.016314
vn 2.219327 -3.054326 2.219327
v 0.052728 -0.015000 0.012728
vn 2.017455 -3.054327 2.404309
v 0.051570 -0.015000 0.013789
vn 1.800228 -3.054325 2.570993
v 0.050324 -0.015000 0.014745
vn 1.569300 -3.054326 2.718110
v 0.049000 -0.015000 0.015588
vn 1.073467 -3.054327 2.949321
v 0.046156 -0.015000 0.016914
vn 0.812330 -3.054324 3.031657
v 0.044659 -0.015000 0.017387
vn -0.812330 -3.054324 3.031657
v -0.044659 -0.015000 0.017387
vn -1.073467 -3.054327 2.949321
v -0.046156 -0.015000 0.016914
vn -1.326430 -3.054326 2.844540
v -0.047607 -0.015000 0.016314
vn -1.569300 -3.054326 2.718110
v -0.049000 -0.015000 0.015588
vn -1.800228 -3.054325 2.570993
v -0.050324 -0.015000 0.014745
vn -2.017455 -3.054327 2.404309
v -0.051570 -0.015000 0.013789
vn -3.031657 -3.054324 -0.812330
v -0.057387 -0.015000 -0.004659
vn -2.949321 -3.054327 -1.073466
v -0.056914 -0.015000 -0.006156
vn -2.844540 -3.054326 -1.326431
v -0.056314 -0.015000 -0.007607
vn -2.404310 -3.054326 -2.017454
v -0.053789 -0.015000 -0.011570
vn -2.219327 -3.054326 -2.219327
v -0.052728 -0.015000 -0.012728
vn -2.017455 -3.054327 -2.404309
v -0.051570 -0.015000 -0.013789
vn -1.800228 -3.054325 -2.570993
v -0.050324 -0.015000 -0.014745
vn 0.545012 -3.054328 3.090920
v 0.043126 -0.015000 0.017727
vn 0.273547 -3.054325 3.126659
v 0.041569 -0.015000 0.017932
vn -2.219327 -3.054326 2.219327
v -0.052728 -0.015000 0.012728
vn -2.404310 -3.054326 2.017454
v -0.053789 -0.015000 0.011570
vn -2.718109 -3.054326 -1.569303
v -0.055588 -0.015000 -0.009000
vn -2.570993 -3.054328 -1.800229
v -0.054745 -0.015000 -0.010324
vn -1.569300 -3.054326 -2.718110
v -0.049000 -0.015000 -0.015588
vn -1.326430 -3.054326 -2.844540
v -0.047607 -0.015000 -0.016314
vn -1.073467 -3.054327 -2.949321
v -0.046156 -0.015000 -0.016914
vn -0.812330 -3.054324 -3.031657
v -0.044659 -0.015000 -0.017387
vn -0.545012 -3.054328 -3.090920
v -0.043126 -0.015000 -0.017727
vn -0.273547 -3.054325 -3.126659
v -0.041569 -0.015000 -0.017932
# 148 vertices, 0 vertices normals

f 1//1 2//2 3//3
f 2//2 4//4 3//3
f 3//3 5//5 6//6
f 7//7 8//8 9//9
f 9//9 10//10 7//7
f 10//10 11//11 7//7
f 7//7 11//11 12//12
f 13//13 14//14 3//3
f 14//14 15//15 3//3
f 3//3 15//15 16//16
f 4//4 17//17 3//3
f 17//17 18//18 3//3
f 3//3 18//18 19//19
f 7//7 20//20 21//21
f 20//20 3//3 21//21
f 21//21 3//3 22//22
f 3//3 6//6 22//22
f 23//23 24//24 25//25
f 16//16 26//26 3//3
f 26//26 27//27 3//3
f 3//3 27//27 28//28
f 28//28 29//29 3//3
f 29//29 30//30 3//3
f 3//3 30//30 1//1
f 19//19 31//31 3//3
f 31//31 32//32 3//3
f 3//3 32//32 33//33
f 33//33 34//34 3//3
f 34//34 35//35 3//3
f 3//3 35//35 5//5
f 36//36 37//37 7//7
f 37//37 38//38 7//7
f 7//7 38//38 39//39
f 7//7 40//40 41//41
f 13//13 3//3 25//25
f 3//3 42//42 25//25
f 25//25 42//42 23//23
f 24//24 43//43 25//25
f 43//43 44//44 25//25
f 25//25 44//44 45//45
f 46//46 44//44 47//47
f 44//44 48//48 47//47
f 46//46 49//49 44//44
f 49//49 50//50 44//44
f 44//44 50//50 45//45
f 39//39 51//51 7//7
f 51//51 52//52 7//7
f 7//7 52//52 8//8
f 12//12 53//53 7//7
f 53//53 54//54 7//7
f 7//7 54//54 40//40
f 55//55 56//56 57//57
f 58//58 59//59 7//7
f 59//59 60//60 7//7
f 60//60 61//61 7//7
f 61//61 62//62 7//7
f 7//7 62//62 63//63
f 63//63 64//64 7//7
f 64//64 65//65 7//7
f 7//7 65//65 66//66
f 66//66 67//67 7//7
f 67//67 68//68 7//7
f 7//7 68//68 36//36
f 69//69 70//70 7//7
f 70//70 71//71 7//7
f 7//7 71//71 20//20
f 41//41 72//72 7//7
f 72//72 73//73 7//7
f 7//7 73//73 69//69
f 58//58 7//7 57//57
f 7//7 74//74 57//57
f 57//57 74//74 55//55
f 75//75 76//76 77//77
f 78//78 79//79 75//75
f 79//79 80//80 75//75
f 75//75 80//80 81//81
f 77//77 82//82 83//83
f 84//84 85//85 77//77
f 85//85 86//86 77//77
f 76//76 87//87 77//77
f 87//87 88//88 77//77
f 77//77 88//88 82//82
f 86//86 89//89 77//77
f 89//89 90//90 77//77
f 77//77 90//90 91//91
f 92//92 93//93 77//77
f 93//93 94//94 77//77
f 77//77 94//94 95//95
f 77//77 96//96 75//75
f 96//96 97//97 75//75
f 75//75 97//97 98//98
f 83//83 99//99 77//77
f 99//99 100//100 77//77
f 77//77 100//100 101//101
f 101//101 102//102 77//77
f 102//102 103//103 77//77
f 77//77 103//103 84//84
f 91//91 104//104 77//77
f 104//104 105//105 77//77
f 77//77 105//105 106//106
f 106//106 107//107 77//77
f 107//107 108//108 77//77
f 77//77 108//108 92//92
f 81//81 109//109 75//75
f 109//109 110//110 75//75
f 75//75 110//110 111//111
f 111//111 112//112 75//75
f 112//112 113//113 75//75
f 75//75 113//113 114//114
f 115//115 116//116 117//117
f 116//116 118//118 117//117
f 118//118 119//119 117//117
f 119//119 120//120 117//117
f 117//117 120//120 121//121
f 115//115 117//117 95//95
f 117//117 122//122 95//95
f 95//95 122//122 123//123
f 98//98 124//124 75//75
f 124//124 125//125 75//75
f 75//75 125//125 126//126
f 126//126 127//127 75//75
f 127//127 128//128 75//75
f 75//75 128//128 129//129
f 114//114 130//130 75//75
f 130//130 131//131 75//75
f 75//75 131//131 132//132
f 133//133 134//134 75//75
f 134//134 135//135 75//75
f 75//75 135//135 136//136
f 123//123 137//137 95//95
f 137//137 138//138 95//95
f 95//95 138//138 77//77
f 129//129 139//139 75//75
f 139//139 140//140 75//75
f 75//75 140//140 78//78
f 132//132 141//141 75//75
f 141//141 142//142 75//75
f 75//75 142//142 133//133
f 136//136 143//143 75//75
f 143//143 144//144 75//75
f 75//75 144//144 145//145
f 146//146 147//147 145//145
f 147//147 148//148 145//145
f 145//145 148//148 75//75
f 96//96 77//77 20//20
f 77//77 3//3 20//20
f 76//76 21//21 22//22
f 76//76 22//22 87//87
f 22//22 6//6 87//87
f 87//87 6//6 88//88
f 6//6 5//5 88//88
f 88//88 5//5 82//82
f 5//5 35//35 82//82
f 82//82 35//35 83//83
f 35//35 34//34 83//83
f 83//83 34//34 99//99
f 34//34 33//33 99//99
f 99//99 33//33 100//100
f 33//33 32//32 100//100
f 100//100 32//32 101//101
f 32//32 31//31 101//101
f 101//101 31//31 102//102
f 31//31 19//19 102//102
f 102//102 19//19 103//103
f 19//19 18//18 103//103
f 103//103 18//18 84//84
f 18//18 17//17 84//84
f 84//84 17//17 85//85
f 17//17 4//4 85//85
f 85//85 4//4 86//86
f 4//4 2//2 86//86
f 86//86 2//2 89//89
f 2//2 1//1 89//89
f 89//89 1//1 90//90
f 1//1 30//30 90//90
f 90//90 30//30 91//91
f 30//30 29//29 91//91
f 91//91 29//29 104//104
f 29//29 28//28 104//104
f 104//104 28//28 105//105
f 28//28 27//27 105//105
f 105//105 27//27 106//106
f 27//27 26//26 106//106
f 106//106 26//26 107//107
f 26//26 16//16 107//107
f 107//107 16//16 108//108
f 16//16 15//15 108//108
f 108//108 15//15 92//92
f 15//15 14//14 92//92
f 92//92 14//14 93//93
f 14//14 13//13 93//93
f 93//93 13//13 94//94
f 13//13 25//25 94//94
f 94//94 25//25 95//95
f 25//25 45//45 95//95
f 95//95 45//45 115//115
f 45//45 50//50 115//115
f 115//115 50//50 116//116
f 50//50 49//49 116//116
f 116//116 49//49 118//118
f 49//49 46//46 118//118
f 118//118 46//46 119//119
f 46//46 47//47 119//119
f 119//119 47//47 120//120
f 47//47 48//48 120//120
f 120//120 48//48 121//121
f 48//48 44//44 121//121
f 121//121 44//44 117//117
f 44//44 43//43 117//117
f 117//117 43//43 122//122
f 43//43 24//24 122//122
f 122//122 24//24 123//123
f 24//24 23//23 123//123
f 123//123 23//23 137//137
f 23//23 42//42 137//137
f 137//137 42//42 138//138
f 42//42 3//3 138//138
f 138//138 3//3 77//77
f 96//96 20//20 71//71
f 96//96 71//71 97//97
f 71//71 70//70 97//97
f 97//97 70//70 98//98
f 70//70 69//69 98//98
f 98//98 69//69 124//124
f 69//69 73//73 124//124
f 124//124 73//73 125//125
f 73//73 72//72 125//125
f 125//125 72//72 126//126
f 72//72 41//41 126//126
f 126//126 41//41 127//127
f 41//41 40//40 127//127
f 127//127 40//40 128//128
f 40//40 54//54 128//128
f 128//128 54//54 129//129
f 54//54 53//53 129//129
f 129//129 53//53 139//139
f 53//53 12//12 139//139
f 139//139 12//12 140//140
f 12//12 11//11 140//140
f 140//140 11//11 78//78
f 11//11 10//10 78//78
f 78//78 10//10 79//79
f 10//10 9//9 79//79
f 79//79 9//9 80//80
f 9//9 8//8 80//80
f 80//80 8//8 81//81
f 8//8 52//52 81//81
f 81//81 52//52 109//109
f 52//52 51//51 109//109
f 109//109 51//51 110//110
f 51//51 39//39 110//110
f 110//110 39//39 111//111
f 39//39 38//38 111//111
f 111//111 38//38 112//112
f 38//38 37//37 112//112
f 112//112 37//37 113//113
f 37//37 36//36 113//113
f 113//113 36//36 114//114
f 36//36 68//68 114//114
f 114//114 68//68 130//130
f 68//68 67//67 130//130
f 130//130 67//67 131//131
f 67//67 66//66 131//131
f 131//131 66//66 132//132
f 66//66 65//65 132//132
f 132//132 65//65 141//141
f 65//65 64//64 141//141
f 141//141 64//64 142//142
f 64//64 63//63 142//142
f 142//142 63//63 133//133
f 63//63 62//62 133//133
f 133//133 62//62 134//134
f 62//62 61//61 134//134
f 134//134 61//61 135//135
f 61//61 60//60 135//135
f 135//135 60//60 136//136
f 60//60 59//59 136//136
f 136//136 59//59 143//143
f 59//59 58//58 143//143
f 143//143 58//58 144//144
f 58//58 57//57 144//144
f 144//144 57//57 145//145
f 57//57 56//56 145//145
f 145//145 56//56 146//146
f 56//56 55//55 146//146
f 146//146 55//55 147//147
f 55//55 74//74 147//147
f 147//147 74//74 148//148
f 74//74 7//7 148//148
f 148//148 7//7 75//75
f 76//76 75//75 21//21
f 75//75 7//7 21//21
# 292 faces, 0 coords texture

# End of File
