####
#
# OBJ File Generated by Meshlab
#
####
# Object link.obj
#
# Vertices: 148
# Faces: 292
#
####
vn -0.068517 3.097960 3.140098
v -0.030000 0.000000 0.018000
vn 0.068517 3.097960 3.140098
v 0.030000 0.000000 0.018000
vn 0.068517 3.097960 -3.140098
v 0.030000 0.000000 -0.018000
vn 3.126659 3.054327 -0.273549
v 0.047932 0.000000 -0.001569
vn 3.090920 3.054327 -0.545012
v 0.047727 0.000000 -0.003126
vn -3.126659 3.054327 0.273549
v -0.047932 0.000000 0.001569
vn -3.090920 3.054327 0.545012
v -0.047727 0.000000 0.003126
vn 2.949321 3.054327 -1.073466
v 0.046914 0.000000 -0.006156
vn 0.812330 3.054325 -3.031657
v 0.034659 0.000000 -0.017387
vn 0.545012 3.054327 -3.090920
v 0.033126 0.000000 -0.017727
vn 0.273547 3.054326 3.126659
v 0.031569 0.000000 0.017932
vn 0.545012 3.054327 3.090920
v 0.033126 0.000000 0.017727
vn 0.812330 3.054325 3.031657
v 0.034659 0.000000 0.017387
vn 1.073466 3.054327 2.949322
v 0.036156 0.000000 0.016914
vn 1.326430 3.054326 2.844540
v 0.037607 0.000000 0.016314
vn 1.569301 3.054325 2.718109
v 0.039000 0.000000 0.015588
vn 2.219327 3.054326 2.219327
v 0.042728 0.000000 0.012728
vn 2.404308 3.054328 2.017456
v 0.043789 0.000000 0.011570
vn 3.031657 3.054324 -0.812330
v 0.047387 0.000000 -0.004659
vn 0.273547 3.054326 -3.126659
v 0.031569 0.000000 -0.017932
vn -0.068517 3.097960 -3.140098
v -0.030000 0.000000 -0.018000
vn -0.273547 3.054326 -3.126659
v -0.031569 0.000000 -0.017932
vn -0.545012 3.054327 -3.090920
v -0.033126 0.000000 -0.017727
vn -1.326430 3.054326 -2.844540
v -0.037607 0.000000 -0.016314
vn -1.569301 3.054325 -2.718109
v -0.039000 0.000000 -0.015588
vn -1.800230 3.054326 -2.570992
v -0.040324 0.000000 -0.014745
vn 1.800230 3.054326 2.570992
v 0.040324 0.000000 0.014745
vn 2.017455 3.054327 2.404309
v 0.041570 0.000000 0.013789
vn 2.570992 3.054324 1.800229
v 0.044745 0.000000 0.010324
vn 2.718110 3.054328 1.569300
v 0.045588 0.000000 0.009000
vn 2.844540 3.054326 1.326431
v 0.046314 0.000000 0.007607
vn 2.949321 3.054327 1.073466
v 0.046914 0.000000 0.006156
vn 3.031657 3.054324 0.812330
v 0.047387 0.000000 0.004659
vn 3.090920 3.054327 0.545012
v 0.047727 0.000000 0.003126
vn 3.126659 3.054327 0.273549
v 0.047932 0.000000 0.001569
vn 3.138602 3.054324 0.000000
v 0.048000 0.000000 0.000000
vn 1.326430 3.054326 -2.844540
v 0.037607 0.000000 -0.016314
vn 2.219327 3.054326 -2.219327
v 0.042728 0.000000 -0.012728
vn 1.569301 3.054325 -2.718109
v 0.039000 0.000000 -0.015588
vn 2.017455 3.054327 -2.404309
v 0.041570 0.000000 -0.013789
vn 1.800230 3.054326 -2.570992
v 0.040324 0.000000 -0.014745
vn -0.812330 3.054325 -3.031657
v -0.034659 0.000000 -0.017387
vn -1.073466 3.054327 -2.949322
v -0.036156 0.000000 -0.016914
vn -2.017455 3.054327 -2.404309
v -0.041570 0.000000 -0.013789
vn -2.219327 3.054326 -2.219327
v -0.042728 0.000000 -0.012728
vn -2.404308 3.054328 -2.017456
v -0.043789 0.000000 -0.011570
vn 2.844540 3.054326 -1.326431
v 0.046314 0.000000 -0.007607
vn 2.718110 3.054328 -1.569300
v 0.045588 0.000000 -0.009000
vn 2.570992 3.054324 -1.800229
v 0.044745 0.000000 -0.010324
vn -2.570992 3.054324 -1.800229
v -0.044745 0.000000 -0.010324
vn -2.718110 3.054328 -1.569300
v -0.045588 0.000000 -0.009000
vn -2.844540 3.054326 -1.326431
v -0.046314 0.000000 -0.007607
vn -3.031657 3.054324 0.812330
v -0.047387 0.000000 0.004659
vn -2.949321 3.054327 1.073466
v -0.046914 0.000000 0.006156
vn -2.844540 3.054326 1.326431
v -0.046314 0.000000 0.007607
vn 1.073466 3.054327 -2.949322
v 0.036156 0.000000 -0.016914
vn 2.404308 3.054328 -2.017456
v 0.043789 0.000000 -0.011570
vn -2.949321 3.054327 -1.073466
v -0.046914 0.000000 -0.006156
vn -3.031657 3.054324 -0.812330
v -0.047387 0.000000 -0.004659
vn -3.090920 3.054327 -0.545012
v -0.047727 0.000000 -0.003126
vn -3.126659 3.054327 -0.273549
v -0.047932 0.000000 -0.001569
vn -3.138602 3.054324 0.000000
v -0.048000 0.000000 0.000000
vn -2.219327 3.054326 2.219327
v -0.042728 0.000000 0.012728
vn -2.017455 3.054327 2.404309
v -0.041570 0.000000 0.013789
vn -0.273547 3.054326 3.126659
v -0.031569 0.000000 0.017932
vn -2.718110 3.054328 1.569300
v -0.045588 0.000000 0.009000
vn -2.570992 3.054324 1.800229
v -0.044745 0.000000 0.010324
vn -2.404308 3.054328 2.017456
v -0.043789 0.000000 0.011570
vn -0.812330 3.054325 3.031657
v -0.034659 0.000000 0.017387
vn -1.569301 3.054325 2.718109
v -0.039000 0.000000 0.015588
vn -1.073466 3.054327 2.949322
v -0.036156 0.000000 0.016914
vn -1.326430 3.054326 2.844540
v -0.037607 0.000000 0.016314
vn -1.800230 3.054326 2.570992
v -0.040324 0.000000 0.014745
vn -0.545012 3.054327 3.090920
v -0.033126 0.000000 0.017727
vn 2.219327 -3.054326 2.219327
v 0.042728 -0.015000 0.012728
vn 2.017455 -3.054327 2.404309
v 0.041570 -0.015000 0.013789
vn 3.138602 -3.054324 0.000000
v 0.048000 -0.015000 0.000000
vn -2.570992 -3.054324 1.800229
v -0.044745 -0.015000 0.010324
vn -2.718110 -3.054328 1.569300
v -0.045588 -0.015000 0.009000
vn -0.068517 -3.097960 -3.140098
v -0.030000 -0.015000 -0.018000
vn -2.844540 -3.054326 1.326431
v -0.046314 -0.015000 0.007607
vn -2.949321 -3.054327 1.073466
v -0.046914 -0.015000 0.006156
vn -2.718110 -3.054328 -1.569300
v -0.045588 -0.015000 -0.009000
vn -2.570992 -3.054324 -1.800229
v -0.044745 -0.015000 -0.010324
vn -3.090920 -3.054327 0.545012
v -0.047727 -0.015000 0.003126
vn 0.545012 -3.054327 -3.090920
v 0.033126 -0.015000 -0.017727
vn 0.812330 -3.054325 -3.031657
v 0.034659 -0.015000 -0.017387
vn 0.068517 -3.097960 3.140098
v 0.030000 -0.015000 0.018000
vn 3.031657 -3.054324 -0.812330
v 0.047387 -0.015000 -0.004659
vn 3.090920 -3.054327 -0.545012
v 0.047727 -0.015000 -0.003126
vn -0.068517 -3.097960 3.140098
v -0.030000 -0.015000 0.018000
vn -0.273547 -3.054326 3.126659
v -0.031569 -0.015000 0.017932
vn -0.545012 -3.054327 3.090920
v -0.033126 -0.015000 0.017727
vn -3.031657 -3.054324 0.812330
v -0.047387 -0.015000 0.004659
vn -0.273547 -3.054326 -3.126659
v -0.031569 -0.015000 -0.017932
vn -3.138602 -3.054324 0.000000
v -0.048000 -0.015000 0.000000
vn -3.126659 -3.054327 -0.273549
v -0.047932 -0.015000 -0.001569
vn -3.090920 -3.054327 -0.545012
v -0.047727 -0.015000 -0.003126
vn -2.017455 -3.054327 -2.404309
v -0.041570 -0.015000 -0.013789
vn -1.800230 -3.054326 -2.570992
v -0.040324 -0.015000 -0.014745
vn -1.569301 -3.054325 -2.718109
v -0.039000 -0.015000 -0.015588
vn -1.326430 -3.054326 -2.844540
v -0.037607 -0.015000 -0.016314
vn -1.073466 -3.054327 -2.949322
v -0.036156 -0.015000 -0.016914
vn 0.273547 -3.054326 -3.126659
v 0.031569 -0.015000 -0.017932
vn 2.404308 -3.054328 2.017456
v 0.043789 -0.015000 0.011570
vn -3.031657 -3.054324 -0.812330
v -0.047387 -0.015000 -0.004659
vn -2.949321 -3.054327 -1.073466
v -0.046914 -0.015000 -0.006156
vn -3.126659 -3.054327 0.273549
v -0.047932 -0.015000 0.001569
vn -2.844540 -3.054326 -1.326431
v -0.046314 -0.015000 -0.007607
vn -2.404308 -3.054328 -2.017456
v -0.043789 -0.015000 -0.011570
vn -2.219327 -3.054326 -2.219327
v -0.042728 -0.015000 -0.012728
vn -0.812330 -3.054325 -3.031657
v -0.034659 -0.015000 -0.017387
vn -0.545012 -3.054327 -3.090920
v -0.033126 -0.015000 -0.017727
vn 0.068517 -3.097960 -3.140098
v 0.030000 -0.015000 -0.018000
vn 2.718110 -3.054328 -1.569300
v 0.045588 -0.015000 -0.009000
vn 2.844540 -3.054326 -1.326431
v 0.046314 -0.015000 -0.007607
vn 2.949321 -3.054327 -1.073466
v 0.046914 -0.015000 -0.006156
vn 3.126659 -3.054327 0.273549
v 0.047932 -0.015000 0.001569
vn 3.090920 -3.054327 0.545012
v 0.047727 -0.015000 0.003126
vn 1.326430 -3.054326 2.844540
v 0.037607 -0.015000 0.016314
vn 1.073466 -3.054327 2.949322
v 0.036156 -0.015000 0.016914
vn 0.812330 -3.054325 3.031657
v 0.034659 -0.015000 0.017387
vn 0.545012 -3.054327 3.090920
v 0.033126 -0.015000 0.017727
vn 3.126659 -3.054327 -0.273549
v 0.047932 -0.015000 -0.001569
vn 0.273547 -3.054326 3.126659
v 0.031569 -0.015000 0.017932
vn -0.812330 -3.054325 3.031657
v -0.034659 -0.015000 0.017387
vn -1.073466 -3.054327 2.949322
v -0.036156 -0.015000 0.016914
vn -1.326430 -3.054326 2.844540
v -0.037607 -0.015000 0.016314
vn 3.031657 -3.054324 0.812330
v 0.047387 -0.015000 0.004659
vn 2.949321 -3.054327 1.073466
v 0.046914 -0.015000 0.006156
vn 2.844540 -3.054326 1.326431
v 0.046314 -0.015000 0.007607
vn 2.718110 -3.054328 1.569300
v 0.045588 -0.015000 0.009000
vn 2.570992 -3.054324 1.800229
v 0.044745 -0.015000 0.010324
vn 1.800230 -3.054326 2.570992
v 0.040324 -0.015000 0.014745
vn 1.569301 -3.054325 2.718109
v 0.039000 -0.015000 0.015588
vn -1.569301 -3.054325 2.718109
v -0.039000 -0.015000 0.015588
vn -1.800230 -3.054326 2.570992
v -0.040324 -0.015000 0.014745
vn -2.017455 -3.054327 2.404309
v -0.041570 -0.015000 0.013789
vn 1.073466 -3.054327 -2.949322
v 0.036156 -0.015000 -0.016914
vn 1.326430 -3.054326 -2.844540
v 0.037607 -0.015000 -0.016314
vn 1.569301 -3.054325 -2.718109
v 0.039000 -0.015000 -0.015588
vn 1.800230 -3.054326 -2.570992
v 0.040324 -0.015000 -0.014745
vn 2.017455 -3.054327 -2.404309
v 0.041570 -0.015000 -0.013789
vn 2.219327 -3.054326 -2.219327
v 0.042728 -0.015000 -0.012728
vn -2.219327 -3.054326 2.219327
v -0.042728 -0.015000 0.012728
vn -2.404308 -3.054328 2.017456
v -0.043789 -0.015000 0.011570
vn 2.404308 -3.054328 -2.017456
v 0.043789 -0.015000 -0.011570
vn 2.570992 -3.054324 -1.800229
v 0.044745 -0.015000 -0.010324
# 148 vertices, 0 vertices normals

f 1//1 2//2 3//3
f 4//4 5//5 3//3
f 6//6 7//7 1//1
f 8//8 9//9 10//10
f 2//2 11//11 3//3
f 11//11 12//12 3//3
f 3//3 12//12 13//13
f 13//13 14//14 3//3
f 14//14 15//15 3//3
f 3//3 15//15 16//16
f 3//3 17//17 18//18
f 5//5 19//19 3//3
f 19//19 8//8 3//3
f 3//3 8//8 20//20
f 8//8 10//10 20//20
f 3//3 21//21 1//1
f 21//21 22//22 1//1
f 1//1 22//22 23//23
f 24//24 25//25 1//1
f 25//25 26//26 1//1
f 16//16 27//27 3//3
f 27//27 28//28 3//3
f 3//3 28//28 17//17
f 18//18 29//29 3//3
f 29//29 30//30 3//3
f 3//3 30//30 31//31
f 31//31 32//32 3//3
f 32//32 33//33 3//3
f 3//3 33//33 34//34
f 34//34 35//35 3//3
f 35//35 36//36 3//3
f 3//3 36//36 4//4
f 37//37 38//38 39//39
f 38//38 40//40 39//39
f 39//39 40//40 41//41
f 23//23 42//42 1//1
f 42//42 43//43 1//1
f 1//1 43//43 24//24
f 26//26 44//44 1//1
f 44//44 45//45 1//1
f 1//1 45//45 46//46
f 8//8 47//47 9//9
f 47//47 48//48 9//9
f 9//9 48//48 49//49
f 46//46 50//50 1//1
f 50//50 51//51 1//1
f 1//1 51//51 52//52
f 7//7 53//53 1//1
f 53//53 54//54 1//1
f 1//1 54//54 55//55
f 37//37 56//56 38//38
f 56//56 9//9 38//38
f 38//38 9//9 57//57
f 9//9 49//49 57//57
f 52//52 58//58 1//1
f 58//58 59//59 1//1
f 1//1 59//59 60//60
f 60//60 61//61 1//1
f 61//61 62//62 1//1
f 1//1 62//62 6//6
f 63//63 64//64 65//65
f 55//55 66//66 1//1
f 66//66 67//67 1//1
f 1//1 67//67 65//65
f 67//67 68//68 65//65
f 65//65 68//68 63//63
f 69//69 70//70 71//71
f 70//70 72//72 71//71
f 64//64 73//73 65//65
f 73//73 70//70 65//65
f 65//65 70//70 74//74
f 70//70 69//69 74//74
f 75//75 76//76 77//77
f 78//78 79//79 80//80
f 79//79 81//81 80//80
f 80//80 81//81 82//82
f 83//83 84//84 85//85
f 86//86 87//87 88//88
f 89//89 90//90 88//88
f 91//91 92//92 80//80
f 92//92 93//93 80//80
f 82//82 94//94 80//80
f 94//94 85//85 80//80
f 80//80 85//85 95//95
f 96//96 97//97 98//98
f 85//85 99//99 100//100
f 100//100 101//101 85//85
f 101//101 102//102 85//85
f 85//85 102//102 103//103
f 86//86 88//88 104//104
f 75//75 77//77 105//105
f 98//98 106//106 96//96
f 106//106 107//107 96//96
f 96//96 107//107 108//108
f 108//108 107//107 85//85
f 107//107 109//109 85//85
f 85//85 109//109 83//83
f 84//84 110//110 85//85
f 110//110 111//111 85//85
f 85//85 111//111 99//99
f 103//103 112//112 85//85
f 112//112 113//113 85//85
f 85//85 113//113 95//95
f 91//91 80//80 88//88
f 80//80 114//114 88//88
f 88//88 114//114 104//104
f 115//115 116//116 88//88
f 116//116 117//117 88//88
f 88//88 117//117 89//89
f 77//77 118//118 119//119
f 120//120 121//121 77//77
f 121//121 122//122 77//77
f 77//77 122//122 123//123
f 90//90 124//124 88//88
f 124//124 77//77 88//88
f 88//88 77//77 125//125
f 77//77 123//123 125//125
f 93//93 126//126 80//80
f 126//126 127//127 80//80
f 80//80 127//127 128//128
f 119//119 129//129 77//77
f 129//129 130//130 77//77
f 77//77 130//130 131//131
f 131//131 132//132 77//77
f 132//132 133//133 77//77
f 77//77 133//133 105//105
f 76//76 134//134 77//77
f 134//134 135//135 77//77
f 77//77 135//135 120//120
f 128//128 136//136 80//80
f 136//136 137//137 80//80
f 80//80 137//137 138//138
f 87//87 139//139 88//88
f 139//139 140//140 88//88
f 88//88 140//140 141//141
f 141//141 142//142 88//88
f 142//142 143//143 88//88
f 88//88 143//143 144//144
f 138//138 145//145 80//80
f 145//145 146//146 80//80
f 80//80 146//146 78//78
f 144//144 147//147 88//88
f 147//147 148//148 88//88
f 88//88 148//148 115//115
f 91//91 88//88 1//1
f 88//88 2//2 1//1
f 114//114 3//3 20//20
f 114//114 20//20 104//104
f 20//20 10//10 104//104
f 104//104 10//10 86//86
f 10//10 9//9 86//86
f 86//86 9//9 87//87
f 9//9 56//56 87//87
f 87//87 56//56 139//139
f 56//56 37//37 139//139
f 139//139 37//37 140//140
f 37//37 39//39 140//140
f 140//140 39//39 141//141
f 39//39 41//41 141//141
f 141//141 41//41 142//142
f 41//41 40//40 142//142
f 142//142 40//40 143//143
f 40//40 38//38 143//143
f 143//143 38//38 144//144
f 38//38 57//57 144//144
f 144//144 57//57 147//147
f 57//57 49//49 147//147
f 147//147 49//49 148//148
f 49//49 48//48 148//148
f 148//148 48//48 115//115
f 48//48 47//47 115//115
f 115//115 47//47 116//116
f 47//47 8//8 116//116
f 116//116 8//8 117//117
f 8//8 19//19 117//117
f 117//117 19//19 89//89
f 19//19 5//5 89//89
f 89//89 5//5 90//90
f 5//5 4//4 90//90
f 90//90 4//4 124//124
f 4//4 36//36 124//124
f 124//124 36//36 77//77
f 36//36 35//35 77//77
f 77//77 35//35 118//118
f 35//35 34//34 118//118
f 118//118 34//34 119//119
f 34//34 33//33 119//119
f 119//119 33//33 129//129
f 33//33 32//32 129//129
f 129//129 32//32 130//130
f 32//32 31//31 130//130
f 130//130 31//31 131//131
f 31//31 30//30 131//131
f 131//131 30//30 132//132
f 30//30 29//29 132//132
f 132//132 29//29 133//133
f 29//29 18//18 133//133
f 133//133 18//18 105//105
f 18//18 17//17 105//105
f 105//105 17//17 75//75
f 17//17 28//28 75//75
f 75//75 28//28 76//76
f 28//28 27//27 76//76
f 76//76 27//27 134//134
f 27//27 16//16 134//134
f 134//134 16//16 135//135
f 16//16 15//15 135//135
f 135//135 15//15 120//120
f 15//15 14//14 120//120
f 120//120 14//14 121//121
f 14//14 13//13 121//121
f 121//121 13//13 122//122
f 13//13 12//12 122//122
f 122//122 12//12 123//123
f 12//12 11//11 123//123
f 123//123 11//11 125//125
f 11//11 2//2 125//125
f 125//125 2//2 88//88
f 91//91 1//1 65//65
f 91//91 65//65 92//92
f 65//65 74//74 92//92
f 92//92 74//74 93//93
f 74//74 69//69 93//93
f 93//93 69//69 126//126
f 69//69 71//71 126//126
f 126//126 71//71 127//127
f 71//71 72//72 127//127
f 127//127 72//72 128//128
f 72//72 70//70 128//128
f 128//128 70//70 136//136
f 70//70 73//73 136//136
f 136//136 73//73 137//137
f 73//73 64//64 137//137
f 137//137 64//64 138//138
f 64//64 63//63 138//138
f 138//138 63//63 145//145
f 63//63 68//68 145//145
f 145//145 68//68 146//146
f 68//68 67//67 146//146
f 146//146 67//67 78//78
f 67//67 66//66 78//78
f 78//78 66//66 79//79
f 66//66 55//55 79//79
f 79//79 55//55 81//81
f 55//55 54//54 81//81
f 81//81 54//54 82//82
f 54//54 53//53 82//82
f 82//82 53//53 94//94
f 53//53 7//7 94//94
f 94//94 7//7 85//85
f 7//7 6//6 85//85
f 85//85 6//6 108//108
f 6//6 62//62 108//108
f 108//108 62//62 96//96
f 62//62 61//61 96//96
f 96//96 61//61 97//97
f 61//61 60//60 97//97
f 97//97 60//60 98//98
f 60//60 59//59 98//98
f 98//98 59//59 106//106
f 59//59 58//58 106//106
f 106//106 58//58 107//107
f 58//58 52//52 107//107
f 107//107 52//52 109//109
f 52//52 51//51 109//109
f 109//109 51//51 83//83
f 51//51 50//50 83//83
f 83//83 50//50 84//84
f 50//50 46//46 84//84
f 84//84 46//46 110//110
f 46//46 45//45 110//110
f 110//110 45//45 111//111
f 45//45 44//44 111//111
f 111//111 44//44 99//99
f 44//44 26//26 99//99
f 99//99 26//26 100//100
f 26//26 25//25 100//100
f 100//100 25//25 101//101
f 25//25 24//24 101//101
f 101//101 24//24 102//102
f 24//24 43//43 102//102
f 102//102 43//43 103//103
f 43//43 42//42 103//103
f 103//103 42//42 112//112
f 42//42 23//23 112//112
f 112//112 23//23 113//113
f 23//23 22//22 113//113
f 113//113 22//22 95//95
f 22//22 21//21 95//95
f 95//95 21//21 80//80
f 114//114 80//80 3//3
f 80//80 21//21 3//3
# 292 faces, 0 coords texture

# End of File
